REM DIRINDEX 1\2\4\18,1\2\4\19,1\2\5\20,1\2\5\21,1\2\6\22,1\2\7\23,1\2\8\24,1\2\8\25,1\2\9\26,1\2\10\27,1\3\11\28,1\3\11\29,1\3\11\30,1\3\11\31,1\3\12\32,1\3\12\33,1\3\12\34,1\3\12\35,1\3\13\36,1\3\13\37,1\3\14\38,1\3\14\39,1\3\15\40,1\3\15\41,1\3\15\42,1\3\16\43,1\3\16\44,1\3\17\45,1\3\17\46
REM DIRNAME cjc023,folder01,folder02,folder03,folder04,folder05,folder06,folder07,folder08,folder09,folder10,folder11,folder12,folder13,folder14,folder15,folder16,folder17,folder18,folder19,folder20,folder21,folder22,folder23,folder24,folder25,folder26,folder27,folder28,folder29,folder30,folder31,folder32,folder33,folder34,folder35,folder36,folder37,folder38,folder39,folder40,folder41,folder42,folder43,folder44,folder45
TITLE ""
FILE "12.mp3" MP3
  TRACK 01 AUDIO
    TITLE "0:"
    INDEX 01 00:00:00
  TRACK 02 AUDIO
    TITLE "18:cjc023_1767"
    INDEX 01 00:00:13
  TRACK 03 AUDIO
    TITLE "0:"
    INDEX 01 00:01:22
  TRACK 04 AUDIO
    TITLE "19:cjc023_1768"
    INDEX 01 00:01:46
  TRACK 05 AUDIO
    TITLE "0:"
    INDEX 01 00:03:27
  TRACK 06 AUDIO
    TITLE "18:cjc023_1769"
    INDEX 01 00:04:23
  TRACK 07 AUDIO
    TITLE "0:"
    INDEX 01 00:05:42
  TRACK 08 AUDIO
    TITLE "19:cjc023_1770"
    INDEX 01 00:05:65
  TRACK 09 AUDIO
    TITLE "0:"
    INDEX 01 00:07:49
  TRACK 10 AUDIO
    TITLE "18:cjc023_1771"
    INDEX 01 00:08:48
  TRACK 11 AUDIO
    TITLE "0:"
    INDEX 01 00:09:73
  TRACK 12 AUDIO
    TITLE "19:cjc023_1772"
    INDEX 01 00:10:19
  TRACK 13 AUDIO
    TITLE "0:"
    INDEX 01 00:12:32
  TRACK 14 AUDIO
    TITLE "18:cjc023_1773"
    INDEX 01 00:13:30
  TRACK 15 AUDIO
    TITLE "0:"
    INDEX 01 00:14:56
  TRACK 16 AUDIO
    TITLE "19:cjc023_1774"
    INDEX 01 00:15:03
  TRACK 17 AUDIO
    TITLE "0:"
    INDEX 01 00:17:14
  TRACK 18 AUDIO
    TITLE "18:cjc023_1775"
    INDEX 01 00:18:13
  TRACK 19 AUDIO
    TITLE "0:"
    INDEX 01 00:19:36
  TRACK 20 AUDIO
    TITLE "19:cjc023_1776"
    INDEX 01 00:19:62
  TRACK 21 AUDIO
    TITLE "0:"
    INDEX 01 00:23:22
  TRACK 22 AUDIO
    TITLE "18:cjc023_1777"
    INDEX 01 00:24:20
  TRACK 23 AUDIO
    TITLE "0:"
    INDEX 01 00:25:62
  TRACK 24 AUDIO
    TITLE "19:cjc023_1778"
    INDEX 01 00:26:09
  TRACK 25 AUDIO
    TITLE "0:"
    INDEX 01 00:28:62
  TRACK 26 AUDIO
    TITLE "18:cjc023_1779"
    INDEX 01 00:29:60
  TRACK 27 AUDIO
    TITLE "0:"
    INDEX 01 00:31:14
  TRACK 28 AUDIO
    TITLE "19:cjc023_1780"
    INDEX 01 00:31:45
  TRACK 29 AUDIO
    TITLE "0:"
    INDEX 01 00:33:52
  TRACK 30 AUDIO
    TITLE "18:cjc023_1781"
    INDEX 01 00:34:49
  TRACK 31 AUDIO
    TITLE "0:"
    INDEX 01 00:36:17
  TRACK 32 AUDIO
    TITLE "19:cjc023_1782"
    INDEX 01 00:36:42
  TRACK 33 AUDIO
    TITLE "0:"
    INDEX 01 00:39:31
  TRACK 34 AUDIO
    TITLE "18:cjc023_1783"
    INDEX 01 00:40:30
  TRACK 35 AUDIO
    TITLE "0:"
    INDEX 01 00:41:42
  TRACK 36 AUDIO
    TITLE "19:cjc023_1784"
    INDEX 01 00:41:65
  TRACK 37 AUDIO
    TITLE "0:"
    INDEX 01 00:44:69
  TRACK 38 AUDIO
    TITLE "18:cjc023_1785"
    INDEX 01 00:45:65
  TRACK 39 AUDIO
    TITLE "0:"
    INDEX 01 00:47:17
  TRACK 40 AUDIO
    TITLE "19:cjc023_1786"
    INDEX 01 00:47:40
  TRACK 41 AUDIO
    TITLE "0:"
    INDEX 01 00:49:08
  TRACK 42 AUDIO
    TITLE "18:cjc023_1787"
    INDEX 01 00:50:17
  TRACK 43 AUDIO
    TITLE "0:"
    INDEX 01 00:51:36
  TRACK 44 AUDIO
    TITLE "19:cjc023_1788"
    INDEX 01 00:51:58
  TRACK 45 AUDIO
    TITLE "0:"
    INDEX 01 00:53:33
  TRACK 46 AUDIO
    TITLE "18:cjc023_1789"
    INDEX 01 00:54:29
  TRACK 47 AUDIO
    TITLE "0:"
    INDEX 01 00:55:57
  TRACK 48 AUDIO
    TITLE "19:cjc023_1790"
    INDEX 01 00:56:04
  TRACK 49 AUDIO
    TITLE "0:"
    INDEX 01 00:58:13
  TRACK 50 AUDIO
    TITLE "18:cjc023_1791"
    INDEX 01 00:59:12
  TRACK 51 AUDIO
    TITLE "0:"
    INDEX 01 01:00:23
  TRACK 52 AUDIO
    TITLE "19:cjc023_1792"
    INDEX 01 01:00:43
  TRACK 53 AUDIO
    TITLE "0:"
    INDEX 01 01:02:50
  TRACK 54 AUDIO
    TITLE "18:cjc023_1793"
    INDEX 01 01:03:49
  TRACK 55 AUDIO
    TITLE "0:"
    INDEX 01 01:04:72
  TRACK 56 AUDIO
    TITLE "19:cjc023_1794"
    INDEX 01 01:05:19
  TRACK 57 AUDIO
    TITLE "0:"
    INDEX 01 01:07:02
  TRACK 58 AUDIO
    TITLE "18:cjc023_1795"
    INDEX 01 01:07:74
  TRACK 59 AUDIO
    TITLE "0:"
    INDEX 01 01:09:12
  TRACK 60 AUDIO
    TITLE "19:cjc023_1796"
    INDEX 01 01:09:32
  TRACK 61 AUDIO
    TITLE "0:"
    INDEX 01 01:12:50
  TRACK 62 AUDIO
    TITLE "18:cjc023_1797"
    INDEX 01 01:13:45
  TRACK 63 AUDIO
    TITLE "0:"
    INDEX 01 01:14:66
  TRACK 64 AUDIO
    TITLE "19:cjc023_1798"
    INDEX 01 01:15:11
  TRACK 65 AUDIO
    TITLE "0:"
    INDEX 01 01:17:22
  TRACK 66 AUDIO
    TITLE "18:cjc023_1799"
    INDEX 01 01:18:19
  TRACK 67 AUDIO
    TITLE "0:"
    INDEX 01 01:19:30
  TRACK 68 AUDIO
    TITLE "19:cjc023_1800"
    INDEX 01 01:19:50
  TRACK 69 AUDIO
    TITLE "0:"
    INDEX 01 01:21:16
  TRACK 70 AUDIO
    TITLE "18:cjc023_1801"
    INDEX 01 01:22:17
  TRACK 71 AUDIO
    TITLE "0:"
    INDEX 01 01:23:44
  TRACK 72 AUDIO
    TITLE "19:cjc023_1802"
    INDEX 01 01:23:65
  TRACK 73 AUDIO
    TITLE "0:"
    INDEX 01 01:26:09
  TRACK 74 AUDIO
    TITLE "18:cjc023_1803"
    INDEX 01 01:27:06
  TRACK 75 AUDIO
    TITLE "0:"
    INDEX 01 01:28:08
  TRACK 76 AUDIO
    TITLE "19:cjc023_1804"
    INDEX 01 01:28:29
  TRACK 77 AUDIO
    TITLE "0:"
    INDEX 01 01:30:34
  TRACK 78 AUDIO
    TITLE "18:cjc023_1805"
    INDEX 01 01:31:30
  TRACK 79 AUDIO
    TITLE "0:"
    INDEX 01 01:32:41
  TRACK 80 AUDIO
    TITLE "19:cjc023_1806"
    INDEX 01 01:32:62
  TRACK 81 AUDIO
    TITLE "0:"
    INDEX 01 01:35:29
  TRACK 82 AUDIO
    TITLE "18:cjc023_1807"
    INDEX 01 01:36:23
  TRACK 83 AUDIO
    TITLE "0:"
    INDEX 01 01:37:64
  TRACK 84 AUDIO
    TITLE "19:cjc023_1808"
    INDEX 01 01:38:08
  TRACK 85 AUDIO
    TITLE "0:"
    INDEX 01 01:40:25
  TRACK 86 AUDIO
    TITLE "18:cjc023_1809"
    INDEX 01 01:41:22
  TRACK 87 AUDIO
    TITLE "0:"
    INDEX 01 01:42:39
  TRACK 88 AUDIO
    TITLE "19:cjc023_1810"
    INDEX 01 01:42:63
  TRACK 89 AUDIO
    TITLE "0:"
    INDEX 01 01:44:46
  TRACK 90 AUDIO
    TITLE "18:cjc023_1811"
    INDEX 01 01:45:44
  TRACK 91 AUDIO
    TITLE "0:"
    INDEX 01 01:47:03
  TRACK 92 AUDIO
    TITLE "19:cjc023_1812"
    INDEX 01 01:47:27
  TRACK 93 AUDIO
    TITLE "0:"
    INDEX 01 01:49:39
  TRACK 94 AUDIO
    TITLE "18:cjc023_1813"
    INDEX 01 01:50:43
  TRACK 95 AUDIO
    TITLE "0:"
    INDEX 01 01:51:58
  TRACK 96 AUDIO
    TITLE "19:cjc023_1814"
    INDEX 01 01:52:04
  TRACK 97 AUDIO
    TITLE "0:"
    INDEX 01 01:53:70
  TRACK 98 AUDIO
    TITLE "18:cjc023_1815"
    INDEX 01 01:54:68
  TRACK 99 AUDIO
    TITLE "0:"
    INDEX 01 01:56:04
  TRACK 100 AUDIO
    TITLE "19:cjc023_1816"
    INDEX 01 01:56:26
  TRACK 101 AUDIO
    TITLE "0:"
    INDEX 01 01:58:25
  TRACK 102 AUDIO
    TITLE "18:cjc023_1817"
    INDEX 01 01:59:24
  TRACK 103 AUDIO
    TITLE "0:"
    INDEX 01 02:00:55
  TRACK 104 AUDIO
    TITLE "19:cjc023_1818"
    INDEX 01 02:01:03
  TRACK 105 AUDIO
    TITLE "0:"
    INDEX 01 02:02:58
  TRACK 106 AUDIO
    TITLE "18:cjc023_1819"
    INDEX 01 02:03:57
  TRACK 107 AUDIO
    TITLE "0:"
    INDEX 01 02:04:74
  TRACK 108 AUDIO
    TITLE "19:cjc023_1820"
    INDEX 01 02:05:21
  TRACK 109 AUDIO
    TITLE "0:"
    INDEX 01 02:07:18
  TRACK 110 AUDIO
    TITLE "18:cjc023_1821"
    INDEX 01 02:08:15
  TRACK 111 AUDIO
    TITLE "0:"
    INDEX 01 02:09:46
  TRACK 112 AUDIO
    TITLE "19:cjc023_1822"
    INDEX 01 02:09:68
  TRACK 113 AUDIO
    TITLE "0:"
    INDEX 01 02:12:48
  TRACK 114 AUDIO
    TITLE "18:cjc023_1823"
    INDEX 01 02:13:46
  TRACK 115 AUDIO
    TITLE "0:"
    INDEX 01 02:14:67
  TRACK 116 AUDIO
    TITLE "19:cjc023_1824"
    INDEX 01 02:15:15
  TRACK 117 AUDIO
    TITLE "0:"
    INDEX 01 02:17:30
  TRACK 118 AUDIO
    TITLE "18:cjc023_1825"
    INDEX 01 02:18:27
  TRACK 119 AUDIO
    TITLE "0:"
    INDEX 01 02:19:46
  TRACK 120 AUDIO
    TITLE "19:cjc023_1826"
    INDEX 01 02:19:68
  TRACK 121 AUDIO
    TITLE "0:"
    INDEX 01 02:21:59
  TRACK 122 AUDIO
    TITLE "18:cjc023_1827"
    INDEX 01 02:22:58
  TRACK 123 AUDIO
    TITLE "0:"
    INDEX 01 02:24:16
  TRACK 124 AUDIO
    TITLE "19:cjc023_1828"
    INDEX 01 02:24:38
  TRACK 125 AUDIO
    TITLE "0:"
    INDEX 01 02:28:71
  TRACK 126 AUDIO
    TITLE "18:cjc023_1829"
    INDEX 01 02:29:68
  TRACK 127 AUDIO
    TITLE "0:"
    INDEX 01 02:30:70
  TRACK 128 AUDIO
    TITLE "19:cjc023_1830"
    INDEX 01 02:31:20
  TRACK 129 AUDIO
    TITLE "0:"
    INDEX 01 02:33:50
  TRACK 130 AUDIO
    TITLE "18:cjc023_1831"
    INDEX 01 02:34:48
  TRACK 131 AUDIO
    TITLE "0:"
    INDEX 01 02:35:63
  TRACK 132 AUDIO
    TITLE "19:cjc023_1832"
    INDEX 01 02:36:08
  TRACK 133 AUDIO
    TITLE "0:"
    INDEX 01 02:38:46
  TRACK 134 AUDIO
    TITLE "18:cjc023_1833"
    INDEX 01 02:39:43
  TRACK 135 AUDIO
    TITLE "0:"
    INDEX 01 02:40:70
  TRACK 136 AUDIO
    TITLE "19:cjc023_1834"
    INDEX 01 02:41:15
  TRACK 137 AUDIO
    TITLE "0:"
    INDEX 01 02:43:37
  TRACK 138 AUDIO
    TITLE "18:cjc023_1835"
    INDEX 01 02:44:33
  TRACK 139 AUDIO
    TITLE "0:"
    INDEX 01 02:45:50
  TRACK 140 AUDIO
    TITLE "19:cjc023_1836"
    INDEX 01 02:45:73
  TRACK 141 AUDIO
    TITLE "0:"
    INDEX 01 02:48:05
  TRACK 142 AUDIO
    TITLE "18:cjc023_1837"
    INDEX 01 02:49:02
  TRACK 143 AUDIO
    TITLE "0:"
    INDEX 01 02:50:18
  TRACK 144 AUDIO
    TITLE "19:cjc023_1838"
    INDEX 01 02:50:41
  TRACK 145 AUDIO
    TITLE "0:"
    INDEX 01 02:52:65
  TRACK 146 AUDIO
    TITLE "18:cjc023_1839"
    INDEX 01 02:53:71
  TRACK 147 AUDIO
    TITLE "0:"
    INDEX 01 02:55:07
  TRACK 148 AUDIO
    TITLE "19:cjc023_1840"
    INDEX 01 02:55:28
  TRACK 149 AUDIO
    TITLE "0:"
    INDEX 01 02:57:12
  TRACK 150 AUDIO
    TITLE "18:cjc023_1841"
    INDEX 01 02:58:07
  TRACK 151 AUDIO
    TITLE "0:"
    INDEX 01 02:59:20
  TRACK 152 AUDIO
    TITLE "19:cjc023_1842"
    INDEX 01 02:59:42
  TRACK 153 AUDIO
    TITLE "0:"
    INDEX 01 03:01:37
  TRACK 154 AUDIO
    TITLE "18:cjc023_1843"
    INDEX 01 03:02:32
  TRACK 155 AUDIO
    TITLE "0:"
    INDEX 01 03:03:63
  TRACK 156 AUDIO
    TITLE "19:cjc023_1844"
    INDEX 01 03:04:08
  TRACK 157 AUDIO
    TITLE "0:"
    INDEX 01 03:06:67
  TRACK 158 AUDIO
    TITLE "18:cjc023_1845"
    INDEX 01 03:07:63
  TRACK 159 AUDIO
    TITLE "0:"
    INDEX 01 03:08:64
  TRACK 160 AUDIO
    TITLE "19:cjc023_1846"
    INDEX 01 03:09:11
  TRACK 161 AUDIO
    TITLE "0:"
    INDEX 01 03:11:04
  TRACK 162 AUDIO
    TITLE "18:cjc023_1847"
    INDEX 01 03:12:00
  TRACK 163 AUDIO
    TITLE "0:"
    INDEX 01 03:13:09
  TRACK 164 AUDIO
    TITLE "19:cjc023_1848"
    INDEX 01 03:13:38
  TRACK 165 AUDIO
    TITLE "0:"
    INDEX 01 03:16:64
  TRACK 166 AUDIO
    TITLE "18:cjc023_1849"
    INDEX 01 03:17:61
  TRACK 167 AUDIO
    TITLE "0:"
    INDEX 01 03:19:23
  TRACK 168 AUDIO
    TITLE "19:cjc023_1850"
    INDEX 01 03:19:45
  TRACK 169 AUDIO
    TITLE "0:"
    INDEX 01 03:22:19
  TRACK 170 AUDIO
    TITLE "18:cjc023_1851"
    INDEX 01 03:23:15
  TRACK 171 AUDIO
    TITLE "0:"
    INDEX 01 03:24:36
  TRACK 172 AUDIO
    TITLE "19:cjc023_1852"
    INDEX 01 03:24:58
  TRACK 173 AUDIO
    TITLE "0:"
    INDEX 01 03:26:72
  TRACK 174 AUDIO
    TITLE "18:cjc023_1853"
    INDEX 01 03:27:70
  TRACK 175 AUDIO
    TITLE "0:"
    INDEX 01 03:29:08
  TRACK 176 AUDIO
    TITLE "19:cjc023_1854"
    INDEX 01 03:29:29
  TRACK 177 AUDIO
    TITLE "0:"
    INDEX 01 03:31:52
  TRACK 178 AUDIO
    TITLE "18:cjc023_1855"
    INDEX 01 03:32:49
  TRACK 179 AUDIO
    TITLE "0:"
    INDEX 01 03:33:68
  TRACK 180 AUDIO
    TITLE "19:cjc023_1856"
    INDEX 01 03:34:17
  TRACK 181 AUDIO
    TITLE "0:"
    INDEX 01 03:37:03
  TRACK 182 AUDIO
    TITLE "18:cjc023_1857"
    INDEX 01 03:38:01
  TRACK 183 AUDIO
    TITLE "0:"
    INDEX 01 03:39:36
  TRACK 184 AUDIO
    TITLE "19:cjc023_1858"
    INDEX 01 03:39:55
  TRACK 185 AUDIO
    TITLE "0:"
    INDEX 01 03:41:58
  TRACK 186 AUDIO
    TITLE "18:cjc023_1859"
    INDEX 01 03:42:57
  TRACK 187 AUDIO
    TITLE "0:"
    INDEX 01 03:43:59
  TRACK 188 AUDIO
    TITLE "19:cjc023_1860"
    INDEX 01 03:44:09
  TRACK 189 AUDIO
    TITLE "0:"
    INDEX 01 03:46:57
  TRACK 190 AUDIO
    TITLE "18:cjc023_1861"
    INDEX 01 03:47:53
  TRACK 191 AUDIO
    TITLE "0:"
    INDEX 01 03:49:01
  TRACK 192 AUDIO
    TITLE "19:cjc023_1862"
    INDEX 01 03:49:26
  TRACK 193 AUDIO
    TITLE "0:"
    INDEX 01 03:51:21
  TRACK 194 AUDIO
    TITLE "18:cjc023_1863"
    INDEX 01 03:52:19
  TRACK 195 AUDIO
    TITLE "0:"
    INDEX 01 03:53:34
  TRACK 196 AUDIO
    TITLE "19:cjc023_1864"
    INDEX 01 03:53:57
  TRACK 197 AUDIO
    TITLE "0:"
    INDEX 01 03:56:32
  TRACK 198 AUDIO
    TITLE "18:cjc023_1865"
    INDEX 01 03:57:28
  TRACK 199 AUDIO
    TITLE "0:"
    INDEX 01 03:58:58
  TRACK 200 AUDIO
    TITLE "19:cjc023_1866"
    INDEX 01 03:59:05
  TRACK 201 AUDIO
    TITLE "0:"
    INDEX 01 04:01:31
  TRACK 202 AUDIO
    TITLE "18:cjc023_1867"
    INDEX 01 04:02:29
  TRACK 203 AUDIO
    TITLE "0:"
    INDEX 01 04:03:40
  TRACK 204 AUDIO
    TITLE "19:cjc023_1868"
    INDEX 01 04:03:62
  TRACK 205 AUDIO
    TITLE "0:"
    INDEX 01 04:05:51
  TRACK 206 AUDIO
    TITLE "18:cjc023_1869"
    INDEX 01 04:06:46
  TRACK 207 AUDIO
    TITLE "0:"
    INDEX 01 04:08:12
  TRACK 208 AUDIO
    TITLE "19:cjc023_1870"
    INDEX 01 04:08:33
  TRACK 209 AUDIO
    TITLE "0:"
    INDEX 01 04:10:34
  TRACK 210 AUDIO
    TITLE "18:cjc023_1871"
    INDEX 01 04:11:30
  TRACK 211 AUDIO
    TITLE "0:"
    INDEX 01 04:12:43
  TRACK 212 AUDIO
    TITLE "19:cjc023_1872"
    INDEX 01 04:12:66
  TRACK 213 AUDIO
    TITLE "0:"
    INDEX 01 04:14:36
  TRACK 214 AUDIO
    TITLE "18:cjc023_1873"
    INDEX 01 04:15:35
  TRACK 215 AUDIO
    TITLE "0:"
    INDEX 01 04:16:52
  TRACK 216 AUDIO
    TITLE "19:cjc023_1874"
    INDEX 01 04:16:72
  TRACK 217 AUDIO
    TITLE "0:"
    INDEX 01 04:19:27
  TRACK 218 AUDIO
    TITLE "18:cjc023_1875"
    INDEX 01 04:20:23
  TRACK 219 AUDIO
    TITLE "0:"
    INDEX 01 04:21:46
  TRACK 220 AUDIO
    TITLE "19:cjc023_1876"
    INDEX 01 04:21:67
  TRACK 221 AUDIO
    TITLE "0:"
    INDEX 01 04:24:21
  TRACK 222 AUDIO
    TITLE "18:cjc023_1877"
    INDEX 01 04:25:20
  TRACK 223 AUDIO
    TITLE "0:"
    INDEX 01 04:26:45
  TRACK 224 AUDIO
    TITLE "19:cjc023_1878"
    INDEX 01 04:26:68
  TRACK 225 AUDIO
    TITLE "0:"
    INDEX 01 04:28:44
  TRACK 226 AUDIO
    TITLE "18:cjc023_1879"
    INDEX 01 04:29:43
  TRACK 227 AUDIO
    TITLE "0:"
    INDEX 01 04:30:54
  TRACK 228 AUDIO
    TITLE "19:cjc023_1880"
    INDEX 01 04:31:01
  TRACK 229 AUDIO
    TITLE "0:"
    INDEX 01 04:32:36
  TRACK 230 AUDIO
    TITLE "18:cjc023_1881"
    INDEX 01 04:33:37
  TRACK 231 AUDIO
    TITLE "0:"
    INDEX 01 04:34:60
  TRACK 232 AUDIO
    TITLE "19:cjc023_1882"
    INDEX 01 04:35:07
  TRACK 233 AUDIO
    TITLE "0:"
    INDEX 01 04:37:17
  TRACK 234 AUDIO
    TITLE "18:cjc023_1883"
    INDEX 01 04:38:13
  TRACK 235 AUDIO
    TITLE "0:"
    INDEX 01 04:39:34
  TRACK 236 AUDIO
    TITLE "19:cjc023_1884"
    INDEX 01 04:39:55
  TRACK 237 AUDIO
    TITLE "0:"
    INDEX 01 04:42:13
  TRACK 238 AUDIO
    TITLE "18:cjc023_1885"
    INDEX 01 04:43:12
  TRACK 239 AUDIO
    TITLE "0:"
    INDEX 01 04:44:21
  TRACK 240 AUDIO
    TITLE "19:cjc023_1886"
    INDEX 01 04:44:47
  TRACK 241 AUDIO
    TITLE "0:"
    INDEX 01 04:46:34
  TRACK 242 AUDIO
    TITLE "18:cjc023_1887"
    INDEX 01 04:47:29
  TRACK 243 AUDIO
    TITLE "0:"
    INDEX 01 04:48:68
  TRACK 244 AUDIO
    TITLE "19:cjc023_1888"
    INDEX 01 04:49:15
  TRACK 245 AUDIO
    TITLE "0:"
    INDEX 01 04:51:17
  TRACK 246 AUDIO
    TITLE "18:cjc023_1889"
    INDEX 01 04:52:23
  TRACK 247 AUDIO
    TITLE "0:"
    INDEX 01 04:53:63
  TRACK 248 AUDIO
    TITLE "19:cjc023_1890"
    INDEX 01 04:54:10
  TRACK 249 AUDIO
    TITLE "0:"
    INDEX 01 04:56:07
  TRACK 250 AUDIO
    TITLE "18:cjc023_1891"
    INDEX 01 04:57:08
  TRACK 251 AUDIO
    TITLE "0:"
    INDEX 01 04:58:31
  TRACK 252 AUDIO
    TITLE "19:cjc023_1892"
    INDEX 01 04:58:55
  TRACK 253 AUDIO
    TITLE "0:"
    INDEX 01 05:00:67
  TRACK 254 AUDIO
    TITLE "18:cjc023_1893"
    INDEX 01 05:01:67
  TRACK 255 AUDIO
    TITLE "0:"
    INDEX 01 05:03:13
  TRACK 256 AUDIO
    TITLE "19:cjc023_1894"
    INDEX 01 05:03:38
  TRACK 257 AUDIO
    TITLE "0:"
    INDEX 01 05:05:25
  TRACK 258 AUDIO
    TITLE "18:cjc023_1895"
    INDEX 01 05:06:23
  TRACK 259 AUDIO
    TITLE "0:"
    INDEX 01 05:07:38
  TRACK 260 AUDIO
    TITLE "19:cjc023_1896"
    INDEX 01 05:07:60
  TRACK 261 AUDIO
    TITLE "0:"
    INDEX 01 05:09:39
  TRACK 262 AUDIO
    TITLE "18:cjc023_1897"
    INDEX 01 05:10:38
  TRACK 263 AUDIO
    TITLE "0:"
    INDEX 01 05:11:63
  TRACK 264 AUDIO
    TITLE "19:cjc023_1898"
    INDEX 01 05:12:10
  TRACK 265 AUDIO
    TITLE "0:"
    INDEX 01 05:15:10
  TRACK 266 AUDIO
    TITLE "18:cjc023_1899"
    INDEX 01 05:16:08
  TRACK 267 AUDIO
    TITLE "0:"
    INDEX 01 05:17:54
  TRACK 268 AUDIO
    TITLE "19:cjc023_1900"
    INDEX 01 05:18:01
  TRACK 269 AUDIO
    TITLE "0:"
    INDEX 01 05:20:33
  TRACK 270 AUDIO
    TITLE "18:cjc023_1901"
    INDEX 01 05:21:30
  TRACK 271 AUDIO
    TITLE "0:"
    INDEX 01 05:22:45
  TRACK 272 AUDIO
    TITLE "19:cjc023_1902"
    INDEX 01 05:22:69
  TRACK 273 AUDIO
    TITLE "0:"
    INDEX 01 05:24:52
  TRACK 274 AUDIO
    TITLE "18:cjc023_1903"
    INDEX 01 05:25:48
  TRACK 275 AUDIO
    TITLE "0:"
    INDEX 01 05:26:67
  TRACK 276 AUDIO
    TITLE "19:cjc023_1904"
    INDEX 01 05:27:17
  TRACK 277 AUDIO
    TITLE "0:"
    INDEX 01 05:29:34
  TRACK 278 AUDIO
    TITLE "18:cjc023_1905"
    INDEX 01 05:30:39
  TRACK 279 AUDIO
    TITLE "0:"
    INDEX 01 05:31:52
  TRACK 280 AUDIO
    TITLE "19:cjc023_1906"
    INDEX 01 05:32:01
  TRACK 281 AUDIO
    TITLE "0:"
    INDEX 01 05:34:33
  TRACK 282 AUDIO
    TITLE "18:cjc023_1907"
    INDEX 01 05:35:28
  TRACK 283 AUDIO
    TITLE "0:"
    INDEX 01 05:36:51
  TRACK 284 AUDIO
    TITLE "19:cjc023_1908"
    INDEX 01 05:36:71
  TRACK 285 AUDIO
    TITLE "0:"
    INDEX 01 05:38:48
  TRACK 286 AUDIO
    TITLE "18:cjc023_1909"
    INDEX 01 05:39:46
  TRACK 287 AUDIO
    TITLE "0:"
    INDEX 01 05:40:61
  TRACK 288 AUDIO
    TITLE "19:cjc023_1910"
    INDEX 01 05:41:13
  TRACK 289 AUDIO
    TITLE "0:"
    INDEX 01 05:44:04
  TRACK 290 AUDIO
    TITLE "18:cjc023_1911"
    INDEX 01 05:45:01
  TRACK 291 AUDIO
    TITLE "0:"
    INDEX 01 05:46:24
  TRACK 292 AUDIO
    TITLE "19:cjc023_1912"
    INDEX 01 05:46:46
  TRACK 293 AUDIO
    TITLE "0:"
    INDEX 01 05:48:43
  TRACK 294 AUDIO
    TITLE "18:cjc023_1913"
    INDEX 01 05:49:40
  TRACK 295 AUDIO
    TITLE "0:"
    INDEX 01 05:50:54
  TRACK 296 AUDIO
    TITLE "19:cjc023_1914"
    INDEX 01 05:50:69
  TRACK 297 AUDIO
    TITLE "0:"
    INDEX 01 05:52:74
  TRACK 298 AUDIO
    TITLE "18:cjc023_1915"
    INDEX 01 05:53:71
  TRACK 299 AUDIO
    TITLE "0:"
    INDEX 01 05:55:27
  TRACK 300 AUDIO
    TITLE "19:cjc023_1916"
    INDEX 01 05:55:47
  TRACK 301 AUDIO
    TITLE "0:"
    INDEX 01 05:57:67
  TRACK 302 AUDIO
    TITLE "18:cjc023_1917"
    INDEX 01 05:58:63
  TRACK 303 AUDIO
    TITLE "0:"
    INDEX 01 06:00:15
  TRACK 304 AUDIO
    TITLE "19:cjc023_1918"
    INDEX 01 06:00:36
  TRACK 305 AUDIO
    TITLE "0:"
    INDEX 01 06:02:31
  TRACK 306 AUDIO
    TITLE "18:cjc023_1919"
    INDEX 01 06:03:29
  TRACK 307 AUDIO
    TITLE "0:"
    INDEX 01 06:04:56
  TRACK 308 AUDIO
    TITLE "19:cjc023_1920"
    INDEX 01 06:05:04
  TRACK 309 AUDIO
    TITLE "0:"
    INDEX 01 06:07:05
  TRACK 310 AUDIO
    TITLE "18:cjc023_1921"
    INDEX 01 06:08:00
  TRACK 311 AUDIO
    TITLE "0:"
    INDEX 01 06:09:16
  TRACK 312 AUDIO
    TITLE "19:cjc023_1922"
    INDEX 01 06:09:37
  TRACK 313 AUDIO
    TITLE "0:"
    INDEX 01 06:13:11
  TRACK 314 AUDIO
    TITLE "18:cjc023_1923"
    INDEX 01 06:14:07
  TRACK 315 AUDIO
    TITLE "0:"
    INDEX 01 06:15:28
  TRACK 316 AUDIO
    TITLE "19:cjc023_1924"
    INDEX 01 06:15:48
  TRACK 317 AUDIO
    TITLE "0:"
    INDEX 01 06:17:37
  TRACK 318 AUDIO
    TITLE "18:cjc023_1925"
    INDEX 01 06:18:32
  TRACK 319 AUDIO
    TITLE "0:"
    INDEX 01 06:19:55
  TRACK 320 AUDIO
    TITLE "19:cjc023_1926"
    INDEX 01 06:20:00
  TRACK 321 AUDIO
    TITLE "0:"
    INDEX 01 06:22:01
  TRACK 322 AUDIO
    TITLE "18:cjc023_1927"
    INDEX 01 06:22:71
  TRACK 323 AUDIO
    TITLE "0:"
    INDEX 01 06:24:09
  TRACK 324 AUDIO
    TITLE "19:cjc023_1928"
    INDEX 01 06:24:33
  TRACK 325 AUDIO
    TITLE "0:"
    INDEX 01 06:28:03
  TRACK 326 AUDIO
    TITLE "18:cjc023_1929"
    INDEX 01 06:28:74
  TRACK 327 AUDIO
    TITLE "0:"
    INDEX 01 06:30:14
  TRACK 328 AUDIO
    TITLE "19:cjc023_1930"
    INDEX 01 06:30:35
  TRACK 329 AUDIO
    TITLE "0:"
    INDEX 01 06:32:34
  TRACK 330 AUDIO
    TITLE "18:cjc023_1931"
    INDEX 01 06:33:32
  TRACK 331 AUDIO
    TITLE "0:"
    INDEX 01 06:34:53
  TRACK 332 AUDIO
    TITLE "19:cjc023_1932"
    INDEX 01 06:35:03
  TRACK 333 AUDIO
    TITLE "0:"
    INDEX 01 06:37:57
  TRACK 334 AUDIO
    TITLE "18:cjc023_1933"
    INDEX 01 06:38:53
  TRACK 335 AUDIO
    TITLE "0:"
    INDEX 01 06:40:06
  TRACK 336 AUDIO
    TITLE "19:cjc023_1934"
    INDEX 01 06:40:28
  TRACK 337 AUDIO
    TITLE "0:"
    INDEX 01 06:42:60
  TRACK 338 AUDIO
    TITLE "18:cjc023_1935"
    INDEX 01 06:43:56
  TRACK 339 AUDIO
    TITLE "0:"
    INDEX 01 06:44:65
  TRACK 340 AUDIO
    TITLE "19:cjc023_1936"
    INDEX 01 06:45:13
  TRACK 341 AUDIO
    TITLE "0:"
    INDEX 01 06:46:68
  TRACK 342 AUDIO
    TITLE "18:cjc023_1937"
    INDEX 01 06:47:65
  TRACK 343 AUDIO
    TITLE "0:"
    INDEX 01 06:49:29
  TRACK 344 AUDIO
    TITLE "19:cjc023_1938"
    INDEX 01 06:49:48
  TRACK 345 AUDIO
    TITLE "0:"
    INDEX 01 06:52:51
  TRACK 346 AUDIO
    TITLE "18:cjc023_1939"
    INDEX 01 06:53:50
  TRACK 347 AUDIO
    TITLE "0:"
    INDEX 01 06:54:69
  TRACK 348 AUDIO
    TITLE "19:cjc023_1940"
    INDEX 01 06:55:18
  TRACK 349 AUDIO
    TITLE "0:"
    INDEX 01 06:57:28
  TRACK 350 AUDIO
    TITLE "18:cjc023_1941"
    INDEX 01 06:58:26
  TRACK 351 AUDIO
    TITLE "0:"
    INDEX 01 06:59:57
  TRACK 352 AUDIO
    TITLE "19:cjc023_1942"
    INDEX 01 07:00:03
  TRACK 353 AUDIO
    TITLE "0:"
    INDEX 01 07:02:22
  TRACK 354 AUDIO
    TITLE "18:cjc023_1943"
    INDEX 01 07:03:21
  TRACK 355 AUDIO
    TITLE "0:"
    INDEX 01 07:04:48
  TRACK 356 AUDIO
    TITLE "19:cjc023_1944"
    INDEX 01 07:04:70
  TRACK 357 AUDIO
    TITLE "0:"
    INDEX 01 07:07:25
  TRACK 358 AUDIO
    TITLE "18:cjc023_1945"
    INDEX 01 07:08:26
  TRACK 359 AUDIO
    TITLE "0:"
    INDEX 01 07:09:41
  TRACK 360 AUDIO
    TITLE "19:cjc023_1946"
    INDEX 01 07:09:63
  TRACK 361 AUDIO
    TITLE "0:"
    INDEX 01 07:11:52
  TRACK 362 AUDIO
    TITLE "18:cjc023_1947"
    INDEX 01 07:12:48
  TRACK 363 AUDIO
    TITLE "0:"
    INDEX 01 07:13:70
  TRACK 364 AUDIO
    TITLE "19:cjc023_1948"
    INDEX 01 07:14:13
  TRACK 365 AUDIO
    TITLE "0:"
    INDEX 01 07:16:08
  TRACK 366 AUDIO
    TITLE "18:cjc023_1949"
    INDEX 01 07:17:06
  TRACK 367 AUDIO
    TITLE "0:"
    INDEX 01 07:18:29
  TRACK 368 AUDIO
    TITLE "19:cjc023_1950"
    INDEX 01 07:18:50
  TRACK 369 AUDIO
    TITLE "0:"
    INDEX 01 07:20:39
  TRACK 370 AUDIO
    TITLE "18:cjc023_1951"
    INDEX 01 07:21:35
  TRACK 371 AUDIO
    TITLE "0:"
    INDEX 01 07:22:28
  TRACK 372 AUDIO
    TITLE "19:cjc023_1952"
    INDEX 01 07:22:50
  TRACK 373 AUDIO
    TITLE "0:"
    INDEX 01 07:23:71
  TRACK 374 AUDIO
    TITLE "18:cjc023_1953"
    INDEX 01 07:24:68
  TRACK 375 AUDIO
    TITLE "0:"
    INDEX 01 07:26:05
  TRACK 376 AUDIO
    TITLE "19:cjc023_1954"
    INDEX 01 07:26:28
  TRACK 377 AUDIO
    TITLE "0:"
    INDEX 01 07:28:00
  TRACK 378 AUDIO
    TITLE "18:cjc023_1955"
    INDEX 01 07:28:70
  TRACK 379 AUDIO
    TITLE "0:"
    INDEX 01 07:30:16
  TRACK 380 AUDIO
    TITLE "19:cjc023_1956"
    INDEX 01 07:30:38
  TRACK 381 AUDIO
    TITLE "0:"
    INDEX 01 07:32:31
  TRACK 382 AUDIO
    TITLE "18:cjc023_1957"
    INDEX 01 07:33:26
  TRACK 383 AUDIO
    TITLE "0:"
    INDEX 01 07:34:35
  TRACK 384 AUDIO
    TITLE "19:cjc023_1958"
    INDEX 01 07:34:63
  TRACK 385 AUDIO
    TITLE "0:"
    INDEX 01 07:36:42
  TRACK 386 AUDIO
    TITLE "18:cjc023_1959"
    INDEX 01 07:37:40
  TRACK 387 AUDIO
    TITLE "0:"
    INDEX 01 07:38:59
  TRACK 388 AUDIO
    TITLE "19:cjc023_1960"
    INDEX 01 07:39:05
  TRACK 389 AUDIO
    TITLE "0:"
    INDEX 01 07:41:14
  TRACK 390 AUDIO
    TITLE "18:cjc023_1961"
    INDEX 01 07:42:13
  TRACK 391 AUDIO
    TITLE "0:"
    INDEX 01 07:43:23
  TRACK 392 AUDIO
    TITLE "19:cjc023_1962"
    INDEX 01 07:43:42
  TRACK 393 AUDIO
    TITLE "0:"
    INDEX 01 07:46:01
  TRACK 394 AUDIO
    TITLE "18:cjc023_1963"
    INDEX 01 07:46:74
  TRACK 395 AUDIO
    TITLE "0:"
    INDEX 01 07:48:43
  TRACK 396 AUDIO
    TITLE "19:cjc023_1964"
    INDEX 01 07:48:69
  TRACK 397 AUDIO
    TITLE "0:"
    INDEX 01 07:51:32
  TRACK 398 AUDIO
    TITLE "18:cjc023_1965"
    INDEX 01 07:52:27
  TRACK 399 AUDIO
    TITLE "0:"
    INDEX 01 07:53:41
  TRACK 400 AUDIO
    TITLE "19:cjc023_1966"
    INDEX 01 07:53:60
  TRACK 401 AUDIO
    TITLE "0:"
    INDEX 01 07:55:53
